PathFileType	4	(X/Y/Z)	pose_F01_0-96.trc
DataRate	CameraRate	NumFrames	NumMarkers	Units	OrigDataRate	OrigDataStartFrame	OrigNumFrames
30	30	10	21	m	30	48	96
Frame#	Time	CHip			RHip			RKnee			RAnkle			RBigToe			RSmallToe			RHeel			LHip			LKnee			LAnkle			LBigToe			LSmallToe			LHeel			Neck			Nose			RShoulder			RElbow			RWrist			LShoulder			LElbow			LWrist			
		X1	Y1	Z1	X2	Y2	Z2	X3	Y3	Z3	X4	Y4	Z4	X5	Y5	Z5	X6	Y6	Z6	X7	Y7	Z7	X8	Y8	Z8	X9	Y9	Z9	X10	Y10	Z10	X11	Y11	Z11	X12	Y12	Z12	X13	Y13	Z13	X14	Y14	Z14	X15	Y15	Z15	X16	Y16	Z16	X17	Y17	Z17	X18	Y18	Z18	X19	Y19	Z19	X20	Y20	Z20	X21	Y21	Z21	
48	1.6	-0.16481101426284614	1.824569311966856	-0.5101475194209084	-0.1756519264745341	1.8232778196921215	-0.45341218691078594	-0.16024398674767573	1.7019285220392888	-0.4361791871500072													-0.15012198216873582	1.826013255738725	-0.565834354077553	-0.13887798872934579	1.702696738158169	-0.5407561414210392	-0.13936440820022136	1.5799642442957151	-0.516364101475268	-0.18080258861997361	1.5498124510179496	-0.5392142586381486	-0.1690006684729214	1.5505235326707056	-0.5506770702081326	-0.13052997432778338	1.5630068755598985	-0.5149426939639365	-0.1516087633385064	1.976269619237298	-0.5279937687904653	-0.18081982178429395	2.040112111815745	-0.5502871257631247	-0.16987853502025035	1.97221287483431	-0.4421542805703259	-0.1779328676433873	1.8900222741629762	-0.4059941173876909	-0.18844102718088743	1.8246494091689072	-0.3837694785978835	-1.7445475706049143	1.8897681897870824	1.169655963029306	-0.12276958982932357	1.8976964283321482	-0.6345843975408023	-0.12219942387798785	1.8261578070342581	-0.6351868095369834
49	1.6333333333333333	-0.1647577821173366	1.8245471450976276	-0.510166158671424	-0.17563999215886278	1.8233325670767302	-0.45338921300105434	-0.162359650262402	1.7005991394256077	-0.4335498934825652													-0.14805534762956843	1.826058947113275	-0.5680738376978695	-0.1419507875651194	1.701301687090698	-0.5416124261140643	-0.13929956165843793	1.5798102058642685	-0.5163297053656466	-0.1805369279692162	1.5487457772013167	-0.5391390604365358	-0.16891467068573207	1.5500646165831755	-0.550621069060833	-0.13061734087959367	1.563757166860953	-0.5149872638293577	-0.14879278308912988	1.976237320622918	-0.5270418245582604	-0.18083604839166595	2.0399392688546243	-0.5502862960981971	-0.16794653472224771	1.9723194982455419	-0.4443599452197731	-0.17876395481855273	1.892173420452446	-0.4007764061251289	-0.19404083051265855	1.8252083073571017	-0.37698889634067634	-1.7446182786336148	1.8897795144206764	1.1697703571872649	-0.12036480992137785	1.8987888255987806	-0.6371165739981186	-0.11770710779615037	1.8251394718859206	-0.6399108863591951
50	1.6666666666666667	-0.1625154479586938	1.8245907512707453	-0.5124818492191662	-0.17533599193218705	1.823362471476114	-0.4535101032022744	-0.16017227309568458	1.7018405937534409	-0.4361495782347368													-0.14771613624818325	1.8261156062820585	-0.5682493529681567	-0.13985216252922408	1.7019629521053874	-0.5352670862265217	-0.1392615032934065	1.579648647219426	-0.5163845681489173	-0.18048394566521814	1.5480950366806534	-0.5394391332795881	-0.16900692231066794	1.5505133505692472	-0.5506627805566366	-0.13049627755088794	1.5631659786326355	-0.515008924094177	-0.14887387639001964	1.9750551046485307	-0.5269502906601721	-0.18168638137695073	2.0400163985317237	-0.5532131672432311	-0.1699375515642669	1.971091968336766	-0.44210390741726024	-0.1853070893439594	1.8932130272936827	-0.3973115113113602	-0.20325930808157713	1.8264172643918635	-0.36603214452542926	-1.7541579556203637	1.8898218626253585	1.1867699019676277	-0.11577097587109492	1.8992874163972746	-0.6416944825604715	-0.10527544891369235	1.827132611760621	-0.6576229939813983
51	1.7	-0.16238293267447648	1.8259008978470477	-0.5126610525577366	-0.17533104860705293	1.823409975805777	-0.4534911452383663	-0.16213158842283293	1.7017448175754069	-0.43397392916794764													-0.1475753667333275	1.827221881067253	-0.568425352630828	-0.14135388138235644	1.7051018915627505	-0.5427858342996252	-0.1402606796883387	1.5797231229446556	-0.519593269820232	-0.18090578164113513	1.5478125741786288	-0.5385768130716174	-0.17127984639191374	1.5489682622570142	-0.5479067311800134	-0.13087639617509556	1.562031003004386	-0.5143602702633239	-0.1508028024844613	1.9762575943563825	-0.5247993524131328	-0.18093903134813238	2.040182915395262	-0.550825590084865	-0.1708370096088093	1.97236155843312	-0.44532895855741006	-0.1890165663348583	1.8975841969641598	-0.39335360146364046	-0.20967333309423836	1.8323142479615049	-0.35487714490349387	-1.744685024757392	1.8899159074705056	1.1698539571781306	-0.11102996564401535	1.9033821297849687	-0.6469159921984186	-0.09194109765949436	1.8343932228174376	-0.6765836604136423
52	1.7333333333333334	-0.16450314620869294	1.824708107567704	-0.5101425891768336	-0.17439807780229138	1.8234847695533292	-0.4500959924111793	-0.16214089623237143	1.6991931439611467	-0.4336322157353848													-0.14980756822799934	1.8258406913963736	-0.5658811182343633	-0.13955879587090614	1.7040307057675874	-0.5445750850593232	-0.13917769298845428	1.5794026282644438	-0.5162529763673662	-0.17966048468561271	1.5494999007900816	-0.5360546624518311	-0.16654659763904134	1.5516491547938522	-0.5534592322526187	-0.1305273650991378	1.5631074281252075	-0.5148434785061853	-0.15156655907660319	1.9775920480711302	-0.5280502506672072	-0.18078811273138776	2.040150191009046	-0.5503002930802061	-0.17069993401243308	1.9735575266281589	-0.44548962322841545	-0.18953132451337576	1.8966817176489845	-0.3875259803436761	-0.20822121881445338	1.8314940731630407	-0.3453177159792375	-1.7442778582740064	1.8898530817633525	1.1691544676028651	-0.10873275305473067	1.9046217113415091	-0.6493379422014893	-0.09030366581473946	1.8417750688863688	-0.6952501590215464
53	1.7666666666666666	-0.16451871537705265	1.8247659621833532	-0.5101894333688068	-0.17534184276964193	1.8237036663210586	-0.45339322734789655	-0.1623021101706851	1.7002336009176988	-0.43355557676528894													-0.1496703648410876	1.8271068040061194	-0.5661323612032644	-0.14085849917326612	1.7025525338938343	-0.5386881421123364	-0.13995574088701027	1.5811661938933665	-0.5202129282771634	-0.18064334542539595	1.5496153439083606	-0.5392392866067361	-0.16862094592754967	1.5517374976837874	-0.5513714334457848	-0.13052526323713493	1.5633027597404585	-0.5150083597964468	-0.1524763412985774	1.977716642786513	-0.5311442840523733	-0.18166283257655075	2.04015817615286	-0.5532399727231	-0.17179744128746757	1.9725422131734034	-0.4485583579691683	-0.189419701247472	1.8993769220051722	-0.38773070459170084	-0.20676910453466837	1.8306738983645767	-0.3357582870549812	-1.74447184871178	1.8898673214335402	1.169500477157035	-0.10948077516083299	1.906943791519159	-0.6529316256302903	-0.08897139506755916	1.8457090997687582	-0.7017648842411054
54	1.8	-0.16449027882554682	1.82740401346662	-0.5106048077374777	-0.17546313124827323	1.8250232880785175	-0.4536084019090104	-0.16216561403258795	1.7021410703374464	-0.433953061069745													-0.1497931826618947	1.8285557610731489	-0.5663115312490691	-0.14174215186030142	1.7053884043942447	-0.5423869160247193	-0.13922173264600737	1.5796374139596503	-0.5163243724814008	-0.17979659938361625	1.5496078726246783	-0.5359476123375091	-0.16894044083849058	1.5503578600166028	-0.5506270802042471	-0.1306022449559832	1.5636301264840324	-0.51493276725553	-0.15136754070716235	1.9779017665041936	-0.5366461073779332	-0.1836902521794453	2.039010371091901	-0.5511816306514299	-0.1717419814696408	1.9726019982257463	-0.4487671295156855	-0.18682543582838249	1.8992102356707783	-0.3868640558535104	-0.2053169902548834	1.8298537235661125	-0.3261988581307248	-1.7348228740572489	1.8898619875605065	1.1522882341787226	-0.10990924258111336	1.909103594716508	-0.6537630799364436	-0.0935680069352661	1.8453621346247122	-0.7055930648167763
55	1.8333333333333333	-0.16479926954745164	1.8246359112061106	-0.5101079535173421	-0.17470502745077582	1.823327169520209	-0.4500034813727064	-0.16236854609336834	1.700989794819318	-0.4335885332828222													-0.14809389645309162	1.826033530164034	-0.5681109822560202	-0.14010215001911558	1.703610117113	-0.5351719442737812	-0.13922401669886142	1.5822320861247343	-0.5166488968429157	-0.18072458943190095	1.5494946767546065	-0.5391535905531837	-0.16921913194548394	1.5518506112582533	-0.5504443170795434	-0.13101642987189205	1.5657037782935834	-0.5146836373864256	-0.1525836211604587	1.9764833117412117	-0.5313103728857111	-0.18362264156098476	2.0399384440879893	-0.5511489334982382	-0.17272378547130987	1.9726201976138984	-0.45185423557982624	-0.18516134020843183	1.8955287131448402	-0.3887101107147658	-0.1993772062506364	1.8271082224146018	-0.32900273225276355	-1.7445988705164754	1.8897666911794533	1.1697443491409971	-0.11555055986753825	1.9068392134124534	-0.6520914059893221	-0.10639921662825291	1.840460698510361	-0.7078722449802083
56	1.8666666666666667	-0.16448079751988998	1.8245036880234458	-0.5102311076597641	-0.17440461555859446	1.8234313241718183	-0.45008626320934375	-0.1624114051365664	1.700709093790921	-0.433555572476442													-0.1478095994824759	1.8260291340058918	-0.5682437311850307	-0.140636510342373	1.703710949380045	-0.5390357872281478	-0.1392502120006942	1.5795947104491717	-0.5163086323487813	-0.180536192351932	1.5484038132690157	-0.5394565027275565	-0.16897826633676624	1.5504453497572372	-0.550654725436935	-0.13045732502218685	1.56292006132958	-0.5149201213073611	-0.1534527399713452	1.9765461509535627	-0.5344483567842675	-0.18170034312975444	2.0400429654637997	-0.5533116425874826	-0.17180984310854866	1.9725068888888082	-0.4487702511582123	-0.1777937290532733	1.8931406259813819	-0.39742432766812175	-0.1863320732655738	1.8262278732157855	-0.3445022894369646	-1.7442510920447334	1.8897312355099396	1.1691461832501016	-0.12233401012807511	1.9002672024082512	-0.6440004920000688	-0.125603672587139	1.8310256679154882	-0.6786246457387941
57	1.9	-0.1648394131927215	1.8244996462696157	-0.5100308828939625	-0.17457253857627764	1.8220142474336931	-0.449744321298995	-0.16332033457514852	1.702878775453848	-0.4373275640694351													-0.1501871699533832	1.8259026755089496	-0.5658087966081725	-0.13999072943940138	1.7041005526190456	-0.5441317667640566	-0.13899856289907395	1.5810522352855871	-0.5169307421381637	-0.18062070546036052	1.549601965758116	-0.5392430934803408	-0.1685835623404521	1.5516243778975727	-0.5513313716137385	-0.1302352761364152	1.5644997448819928	-0.515541927950779	-0.1534614330326845	1.9764765873408257	-0.5343979175528678	-0.1817305105889531	2.039995013130844	-0.5533491131760843	-0.17368760187402157	1.9723694851740827	-0.4464445511072643	-0.17506742126323008	1.8895306221493295	-0.4047645659756215	-0.17834150337412985	1.8230520622295976	-0.36752256923497034	-1.732631334170272	1.8878111608706054	1.1492809021196255	-0.12558387315294503	1.8958730615285182	-0.6351970578828932	-0.13467779033827457	1.8263349172345873	-0.6509942033906769
